<svg xmlns="http://www.w3.org/2000/svg" width="50.266" height="59.749" viewBox="0 0 50.266 59.749"><defs><style>.a{opacity:0.295;}.b{fill:#34495e;}.c{fill:#ee3e54;opacity:0.5;}.d{fill:#fff;}</style></defs><g transform="translate(-709 -1727)"><g class="a" transform="translate(709 1727)"><path class="b" d="M97.278,162.555a13.278,13.278,0,1,1,13.278-13.278A13.292,13.292,0,0,1,97.278,162.555Zm0-25.607a12.329,12.329,0,1,0,12.329,12.329A12.344,12.344,0,0,0,97.278,136.948Zm0,0" transform="translate(-74.042 -119.877)"/><path class="b" d="M258.787,314.55a.477.477,0,0,1-.336-.138l-2.492-2.492a.475.475,0,0,1,.054-.718,12.381,12.381,0,0,0,2.592-2.575.474.474,0,0,1,.346-.189.481.481,0,0,1,.37.138l2.484,2.484a.475.475,0,0,1,0,.671l-2.683,2.683A.473.473,0,0,1,258.787,314.55Zm-1.775-2.92,1.776,1.776,2.013-2.013-1.769-1.769A13.31,13.31,0,0,1,257.013,311.629Zm0,0" transform="translate(-225.492 -271.87)"/><path class="b" d="M287.483,343.44a1.419,1.419,0,0,1-1.006-.416l-8.718-8.718a1.427,1.427,0,0,1,0-2.013l2.013-2.012a1.424,1.424,0,0,1,2.012,0L290.5,339a1.424,1.424,0,0,1,0,2.013l-2.012,2.012A1.415,1.415,0,0,1,287.483,343.44Zm-6.705-12.626a.472.472,0,0,0-.336.138l-2.013,2.012a.476.476,0,0,0,0,.672l8.718,8.718a.474.474,0,0,0,.672,0l2.012-2.013a.467.467,0,0,0,.138-.336.476.476,0,0,0-.138-.336l-8.718-8.718A.479.479,0,0,0,280.778,330.813Zm0,0" transform="translate(-244.464 -290.759)"/><path class="b" d="M70.41,112.369H33.423A1.424,1.424,0,0,1,32,110.946V65.423A1.424,1.424,0,0,1,33.423,64H69.462a1.424,1.424,0,0,1,1.423,1.423V98.809a.474.474,0,0,1-.948,0V65.423a.475.475,0,0,0-.474-.474H33.423a.475.475,0,0,0-.474.474v45.524a.475.475,0,0,0,.474.474H70.41a.474.474,0,1,1,0,.948Zm0,0" transform="translate(-28.206 -56.413)"/><path class="b" d="M37.462,151.42H1.423A1.424,1.424,0,0,1,0,150V105.423A1.424,1.424,0,0,1,1.423,104h.948a.474.474,0,0,1,0,.948H1.423a.475.475,0,0,0-.474.474V150a.475.475,0,0,0,.474.474H37.462a.475.475,0,0,0,.474-.474v-.948a.474.474,0,0,1,.948,0V150A1.424,1.424,0,0,1,37.462,151.42Zm0,0" transform="translate(0 -91.671)"/><path class="b" d="M106.708,380.956H92.482a.474.474,0,0,1,0-.948h14.226a.474.474,0,0,1,0,.948Zm0,0" transform="translate(-81.1 -334.958)"/><path class="b" d="M106.708,404.956H92.482a.474.474,0,0,1,0-.948h14.226a.474.474,0,1,1,0,.948Zm0,0" transform="translate(-81.1 -356.112)"/><path class="b" d="M99.6,428.956H92.482a.474.474,0,1,1,0-.948H99.6a.474.474,0,1,1,0,.948Zm0,0" transform="translate(-81.1 -377.267)"/><path class="b" d="M388.268,64.948h-3.794a.474.474,0,1,1,0-.948h3.794a.474.474,0,1,1,0,.948Zm0,0" transform="translate(-338.476 -56.413)"/><path class="b" d="M340.268,16.948h-3.794a.474.474,0,1,1,0-.948h3.794a.474.474,0,0,1,0,.948Zm0,0" transform="translate(-296.167 -14.103)"/><path class="b" d="M352.474,4.742A.474.474,0,0,1,352,4.268V.474a.474.474,0,1,1,.948,0V4.268A.474.474,0,0,1,352.474,4.742Zm0,0" transform="translate(-310.27)"/><path class="b" d="M400.474,52.742a.474.474,0,0,1-.474-.474V48.474a.474.474,0,1,1,.948,0v3.794A.474.474,0,0,1,400.474,52.742Zm0,0" transform="translate(-352.58 -42.31)"/></g><g transform="translate(722.383 1746.494)"><g transform="translate(0 0)"><circle class="c" cx="9.929" cy="9.929" r="9.929"/></g></g><path class="d" d="M11.045,20.081a1,1,0,1,1,1-1A1,1,0,0,1,11.045,20.081Zm1-5.286a1,1,0,0,1-2,0V8.367a1,1,0,0,1,2,0Zm0,0" transform="translate(721.444 1742.74)"/></g></svg>