<svg id="user" xmlns="http://www.w3.org/2000/svg" width="70" height="70.003" viewBox="0 0 70 70.003">
  <path id="Path_17813" data-name="Path 17813" d="M21.585,55.858,11.117,62.011A9.45,9.45,0,0,0,9.437,63.3a33.152,33.152,0,0,0,45.048.126,9.274,9.274,0,0,0-1.845-1.332L41.43,56.054a4.655,4.655,0,0,1-2.363-4.119V47.2c.315-.387.675-.883,1.06-1.469a28.706,28.706,0,0,0,3.484-7.566,3.768,3.768,0,0,0,2.5-3.609V29.494a3.908,3.908,0,0,0-1.173-2.8V19.379S46.33,8,32.028,8,19.12,19.379,19.12,19.379v7.312a3.9,3.9,0,0,0-1.173,2.8v5.058a3.869,3.869,0,0,0,1.623,3.182A25.839,25.839,0,0,0,23.814,47.2v4.622A4.675,4.675,0,0,1,21.585,55.858Z" transform="translate(2.975 -2.185)" fill="#f6f8ff"/>
  <g id="Group_8056" data-name="Group 8056" transform="translate(0 0)">
    <path id="Path_17814" data-name="Path 17814" d="M35.6.005A35,35,0,0,0,12.479,61.795a9.3,9.3,0,0,1,1.66-1.181l10.444-5.7a4.269,4.269,0,0,0,2.223-3.747V46.885a23.237,23.237,0,0,1-4.235-8.766,3.515,3.515,0,0,1-1.619-2.948V30.485a3.5,3.5,0,0,1,1.17-2.6V21.114S20.731,10.572,35,10.572,47.878,21.114,47.878,21.114v6.774a3.494,3.494,0,0,1,1.17,2.6v4.686a3.514,3.514,0,0,1-2.491,3.343,25.752,25.752,0,0,1-3.476,7.009,16.9,16.9,0,0,1-1.058,1.361v4.39a4.266,4.266,0,0,0,2.358,3.817l11.183,5.594A9.312,9.312,0,0,1,57.4,61.918,35.017,35.017,0,0,0,35.6.005Z" transform="translate(0 0)" fill="#c9c9c9"/>
  </g>
</svg>
